# xmcd
#
# Track frame offsets:
#	150
#	23167
#	42255
#	67872
#	88215
#	103955
#	131610
#	149320
#	168135
#	174685
#	197809
# Disc length: 2848 seconds
# Revision: 2
# Processed by: cddbd v1.5.1PL0 Copyright (c) Steve Scherf et al.
#
# Submitted via: libkcddb 0.10
#
DISCID=980b1e0b
DTITLE=Bo Diddley, Muddy Waters, Little Walter - Super Blues
DYEAR=1900
DGENRE=blues
TTITLE0=Long distance call
TTITLE1=Who do you love
TTITLE2=I'm a man
TTITLE3=Bo Diddley
TTITLE4=You can't judge a book by its cover
TTITLE5=I just want to make love to you
TTITLE6=My babe
TTITLE7=You don't love me
TTITLE8=Studio chatter
TTITLE9=Sad hours
TTITLE10=Juke
EXTD=
EXTT0=
EXTT1=
EXTT2=
EXTT3=
EXTT4=
EXTT5=
EXTT6=
EXTT7=
EXTT8=
EXTT9=
EXTT10=
PLAYORDER=
